<svg width="41" height="41" viewBox="0 0 41 41" fill="none" xmlns="http://www.w3.org/2000/svg">
<path d="M21.9422 8.85186C24.3419 9.25405 26.5218 10.3875 28.2621 12.1242C30.0024 13.861 31.129 16.0364 31.5412 18.4313M22.3086 1C26.5768 1.72211 30.4696 3.7422 33.5655 6.82261C36.6613 9.91216 38.6764 13.797 39.4 18.0565M36.0659 35.0033C36.0659 35.0033 33.7486 37.2794 33.1807 37.9466C32.2556 38.9338 31.1656 39.4 29.7368 39.4C29.5994 39.4 29.4528 39.4 29.3154 39.3908C26.5951 39.2172 24.0671 38.1569 22.1711 37.2519C16.9869 34.7474 12.4347 31.1917 8.65184 26.6853C5.52849 22.9285 3.44014 19.455 2.05708 15.7256C1.20525 13.4496 0.893832 11.6763 1.03122 10.0036C1.12282 8.9341 1.53499 8.04746 2.29522 7.28878L5.41857 4.17181C5.86738 3.75134 6.34367 3.52282 6.8108 3.52282C7.38784 3.52282 7.85497 3.87017 8.14807 4.16267C8.15723 4.17181 8.16639 4.18095 8.17555 4.19009C8.73427 4.71111 9.26552 5.25041 9.82424 5.82627C10.1082 6.11878 10.4013 6.41128 10.6944 6.71292L13.1949 9.20833C14.1658 10.1772 14.1658 11.073 13.1949 12.0419C12.9293 12.307 12.6728 12.5721 12.4072 12.828C11.6378 13.6141 12.2422 13.011 11.4453 13.7239C11.427 13.7422 11.4087 13.7514 11.3995 13.7696C10.6118 14.5557 10.7584 15.3236 10.9232 15.8446C10.9324 15.872 10.9416 15.8994 10.9507 15.9268C11.601 17.499 12.517 18.9798 13.9092 20.744L13.9184 20.7531C16.4464 23.861 19.1117 26.2832 22.0519 28.1388C22.4274 28.3764 22.8121 28.5684 23.1785 28.7512C23.5083 28.9157 23.8197 29.0711 24.0853 29.2357C24.1219 29.254 24.1586 29.2814 24.1952 29.2997C24.5066 29.455 24.7997 29.5282 25.102 29.5282C25.8622 29.5282 26.3385 29.0529 26.4942 28.8975L28.2896 27.1058C28.601 26.795 29.0956 26.4202 29.6727 26.4202C30.2405 26.4202 30.7077 26.7767 30.9916 27.0875C31.0008 27.0966 31.0008 27.0966 31.0099 27.1058L36.0567 32.1423C37.0002 33.0746 36.0659 35.0033 36.0659 35.0033Z" stroke="white" stroke-width="2" stroke-linecap="round" stroke-linejoin="round"/>
</svg>
