<svg width="167" height="44" viewBox="0 0 167 44" fill="none" xmlns="http://www.w3.org/2000/svg">
<path d="M46.7232 0.175526L53.9764 0.206839L53.8185 36.7867C53.804 40.1342 51.1106 42.8007 47.7583 42.7863L35.9947 42.7355L36.026 35.4925L46.5705 35.5381L46.5832 32.6165L42.0728 32.5971C38.7205 32.5826 36.0502 29.893 36.0646 26.5454L36.1787 0.130004L43.4319 0.161317L43.3231 25.3594L46.6144 25.3736L46.7232 0.175526Z" fill="white"/>
<path d="M83.9373 0.336183C87.2896 0.350655 89.9596 3.10116 89.9452 6.44873L89.8495 28.6036C89.8351 31.9511 87.1417 34.6176 83.7893 34.6031L79.279 34.5837L79.243 42.9222L71.9898 42.8909L72.1737 0.285399L83.9373 0.336183ZM82.6016 27.355L82.6867 7.63471L79.3954 7.62051L79.3102 27.3408L82.6016 27.355Z" fill="white"/>
<path d="M118.713 0.486315L125.966 0.517628L125.809 37.0975C125.794 40.445 123.101 43.1115 119.748 43.097L107.985 43.0463L108.016 35.8033L118.561 35.8489L118.573 32.9273L114.063 32.9079C110.711 32.8934 108.04 30.2038 108.055 26.8562L108.169 0.440793L115.422 0.472106L115.313 25.6702L118.605 25.6844L118.713 0.486315Z" fill="white"/>
<path d="M159.463 0.662234L166.045 0.690652L165.861 43.2961L158.608 43.2648L158.698 22.449L154.908 39.0491L151.323 22.4172L151.233 43.233L143.98 43.2017L144.164 0.596188L150.686 0.624343L154.988 20.4853L159.463 0.662234Z" fill="white"/>
<path d="M0.157318 6.06111C0.17177 2.71353 2.86544 -0.0138128 6.21775 0.000659496L12.0995 0.0260518C16.5795 0.0453921 17.9695 2.79037 17.955 6.13794L17.7974 42.6569L10.5442 42.6256L10.5802 34.2871L7.28884 34.2729L7.25284 42.6114L-0.000338713 42.5801L0.157318 6.06111ZM7.32011 27.03L10.6115 27.0442L10.6966 7.32393L3.67354 7.29361L7.3946 9.77475L7.32011 27.03Z" fill="white"/>
</svg>
